# xmcd
# 
# Track frame offsets:
#     182
#     13207
#     32522
#     42657
#     57205
#     73722
#     88962
#     109287
#     125270
#     139932
#     157745
# 
# Disc length: 2405
# 
# Revision: 33
# Processed by: cddbd v1.5.2PL0 Copyright (c) Steve Scherf et al.
# Submitted via: fre:ac v1.0.31
# 
DISCID=9809630b
DTITLE=Fleetwood Mac - Rumours
DYEAR=1977
DGENRE=Rock
TTITLE0=Second Hand News
TTITLE1=Dreams
TTITLE2=Never Going Back Again
TTITLE3=Don't Stop
TTITLE4=Go Your Own Way
TTITLE5=Songbird
TTITLE6=The Chain
TTITLE7=You Make Loving Fun
TTITLE8=I Don't Want To Know
TTITLE9=Oh Daddy
TTITLE10=Gold Dust Woman
EXTD=YEAR: 1977
EXTT0=
EXTT1=
EXTT2=
EXTT3=
EXTT4=
EXTT5=
EXTT6=
EXTT7=
EXTT8=
EXTT9=
EXTT10=
PLAYORDER=
